<?xml version="1.0" encoding="UTF-8" standalone="no"?>
<!-- Created with Inkscape (http://www.inkscape.org/) -->

<svg
   xmlns:dc="http://purl.org/dc/elements/1.1/"
   xmlns:cc="http://creativecommons.org/ns#"
   xmlns:rdf="http://www.w3.org/1999/02/22-rdf-syntax-ns#"
   xmlns:svg="http://www.w3.org/2000/svg"
   xmlns="http://www.w3.org/2000/svg"
   xmlns:sodipodi="http://sodipodi.sourceforge.net/DTD/sodipodi-0.dtd"
   xmlns:inkscape="http://www.inkscape.org/namespaces/inkscape"
   width="60mm"
   height="60mm"
   viewBox="0 0 60 60"
   version="1.1"
   id="svg8"
   inkscape:version="0.92.4 (5da689c313, 2019-01-14)"
   sodipodi:docname="Divinity_Tile.svg">
  <defs
     id="defs2" />
  <sodipodi:namedview
     id="base"
     pagecolor="#ffffff"
     bordercolor="#666666"
     borderopacity="1.0"
     inkscape:pageopacity="0.0"
     inkscape:pageshadow="2"
     inkscape:zoom="1.979899"
     inkscape:cx="-28.797055"
     inkscape:cy="126.68348"
     inkscape:document-units="mm"
     inkscape:current-layer="layer1"
     showgrid="false"
     inkscape:window-width="1920"
     inkscape:window-height="1027"
     inkscape:window-x="1912"
     inkscape:window-y="399"
     inkscape:window-maximized="1" />
  <metadata
     id="metadata5">
    <rdf:RDF>
      <cc:Work
         rdf:about="">
        <dc:format>image/svg+xml</dc:format>
        <dc:type
           rdf:resource="http://purl.org/dc/dcmitype/StillImage" />
        <dc:title></dc:title>
      </cc:Work>
    </rdf:RDF>
  </metadata>
  <g
     inkscape:label="Layer 1"
     inkscape:groupmode="layer"
     id="layer1"
     transform="translate(0,-237)">
    <path
       style="fill:none;stroke:none;stroke-width:0.26458332px;stroke-linecap:butt;stroke-linejoin:miter;stroke-opacity:1"
       d="m 27.395127,22.113291 13.363475,-3.741774 11.726452,-8.251947 11.860085,8.385582 13.029388,3.541321 1.00226,14.633005 5.378799,11.826676 L 72.931173,58.395128 66.282842,70.722934 53.186636,68.217282 38.653854,70.789751 32.10575,58.996484 21.348153,49.107513 26.827178,36.311982 Z"
       id="path3724"
       inkscape:connector-curvature="0" />
    <path
       style="fill:none;stroke:none;stroke-width:0.26458332px;stroke-linecap:butt;stroke-linejoin:miter;stroke-opacity:1"
       d="m 34.395833,27.502974 10.677826,-3.590772 6.85082,-5.386161 8.646204,5.953125 10.205358,3.023808 0.14174,11.055805 3.354541,7.276042 -6.850819,6.567336 -4.866445,8.220983 -9.307663,-1.228424 -11.055802,2.929316 -4.204986,-8.173736 -8.173736,-7.984746 3.96875,-7.9375 z"
       id="path3726"
       inkscape:connector-curvature="0" />
    <g
       id="g4545"
       transform="matrix(0.94630657,0,0,0.94550025,-5.3602431,229.05214)">
      <g
         id="g4562"
         transform="translate(-15.111822,-0.64796993)">
        <g
           id="g4540">
          <path
             transform="scale(0.26458333)"
             inkscape:connector-curvature="0"
             id="path3730"
             d="M 134.16789,244.67291 121.89486,222.54578 102.94918,205.12534 C 92.529054,195.54409 83.430111,187.20371 82.729305,186.59115 l -1.274195,-1.11374 10.289603,-24.01581 10.289607,-24.01582 1.07488,-26.65616 c 0.59118,-14.660885 1.10053,-26.676682 1.13188,-26.701768 0.0313,-0.02508 11.14628,-3.135757 24.69985,-6.91261 13.55357,-3.776851 25.16233,-7.164405 25.79724,-7.527897 0.63491,-0.363493 10.63984,-7.337639 22.23318,-15.498103 11.59333,-8.160464 21.22938,-14.837207 21.41346,-14.837207 0.18406,0 10.26842,7.026733 22.40968,15.614964 l 22.07501,15.614963 24.46428,6.649669 24.46429,6.649668 0.0892,1.038939 c 0.0491,0.571418 0.8964,12.931797 1.88294,27.467512 l 1.79373,26.42857 10.01989,22.05935 c 5.51094,12.13264 9.96719,22.19754 9.90277,22.36644 -0.0644,0.1689 -9.17307,8.57519 -20.24146,18.68065 l -20.12435,18.37356 -12.31018,22.83143 c -6.7706,12.55728 -12.43903,22.96296 -12.59651,23.12372 -0.15749,0.16076 -11.28822,-1.81189 -24.73495,-4.38365 l -24.44861,-4.67594 -27.27213,4.83008 c -14.99967,2.65654 -27.28234,4.82738 -27.29482,4.82408 -0.0125,-0.003 -5.54555,-9.9632 -12.29572,-22.13313 z m 46.20161,-13.9758 c 11.19643,-2.97158 20.86002,-5.38841 21.47465,-5.37075 0.61462,0.0176 8.41341,1.00201 17.33063,2.18746 8.91722,1.18545 16.55518,2.15536 16.97325,2.15536 0.62293,0 2.42243,-2.81016 9.97062,-15.57045 l 9.21049,-15.57045 12.87732,-12.35083 c 7.08253,-6.79295 12.92697,-12.55099 12.98764,-12.79564 0.0607,-0.24466 -2.71855,-6.59782 -6.17605,-14.11815 l -6.28638,-13.67332 -0.29781,-21.01183 c -0.16379,-11.5565 -0.35778,-21.06548 -0.43108,-21.13106 -0.0733,-0.0656 -8.82211,-2.68767 -19.44179,-5.826848 l -19.30851,-5.7076 -16.18517,-11.151253 c -8.90184,-6.133189 -16.36584,-11.220584 -16.58667,-11.305324 -0.22083,-0.08474 -6.25238,4.444629 -13.40344,10.06526 l -13.00194,10.219332 -20.21003,6.809664 c -11.11551,3.745319 -20.2758,6.861899 -20.35621,6.925749 -0.0804,0.0639 -0.67459,9.26173 -1.3204,20.43973 l -1.1742,20.32365 -7.53708,15.07082 c -4.14539,8.28896 -7.48872,15.19666 -7.4296,15.35045 0.0591,0.15379 7.09854,7.11819 15.64319,15.47645 l 15.53571,15.19684 7.85714,15.37438 c 5.0322,9.84671 8.04976,15.37741 8.39286,15.3828 0.29464,0.005 9.69643,-2.42287 20.89286,-5.39444 z"
             style="fill:#aa4b22;fill-opacity:1;stroke-width:0.35714287" />
        </g>
        <path
           transform="scale(0.26458333)"
           style="fill:#8e401e;fill-opacity:1;stroke:#8e401e;stroke-width:4.91338587;stroke-miterlimit:4;stroke-dasharray:none;stroke-opacity:1"
           d="m 159.22896,233.50846 c -0.34274,-0.63839 -3.92275,-7.53615 -7.9556,-15.32836 l -7.33243,-14.16764 -15.08929,-14.7117 c -8.29911,-8.09144 -15.08928,-14.85515 -15.08928,-15.03049 0,-0.17533 3.27594,-6.86914 7.27987,-14.87514 l 7.27987,-14.55636 1.15077,-20.17408 c 0.63293,-11.09575 1.17395,-20.18929 1.20227,-20.20789 0.0283,-0.0186 9.0515,-3.065 20.0515,-6.769799 l 20,-6.736 12.43038,-9.766809 c 6.8367,-5.371745 12.64971,-9.850976 12.91779,-9.953847 0.27086,-0.103939 7.60454,4.71726 16.5064,10.851399 l 16.01899,11.038438 19.1334,5.660878 19.13339,5.66088 0.25609,20.73862 0.25609,20.73862 6.23656,13.54223 6.23655,13.54223 -0.88484,0.92206 c -0.48666,0.50712 -6.19513,5.98455 -12.68548,12.17205 l -11.80065,11.25 -9.14946,15.44643 c -6.91854,11.6801 -9.31403,15.44643 -9.82437,15.44643 -0.3712,0 -7.97362,-0.96429 -16.89427,-2.14286 -8.92065,-1.17857 -16.61121,-2.14286 -17.09013,-2.14286 -0.47892,0 -9.97139,2.41072 -21.09437,5.35714 -11.12298,2.94643 -20.30301,5.35715 -20.40009,5.35715 -0.0971,0 -0.45692,-0.52232 -0.79966,-1.16072 z"
           id="path3732"
           inkscape:connector-curvature="0" />
      </g>
    </g>
  </g>
</svg>
